# xmcd
#
# Track frame offsets:
#	150
#	12325
#	26956
#	42987
#	58389
#	70787
#	83561
#	96728
#	112697
#	125742
#	140799
#	150969
#
# Disc length: 2154 seconds
#
# Revision: 0
# Processed by: cddbd v1.5.2PL0 Copyright (c) Steve Scherf et al.
# Submitted via: dBpowerAMP V4.0
#
DISCID=a608680c
DTITLE=Thoughts of You - Joni Harms
DYEAR=1985
DGENRE=Country
TTITLE0=Comin` Home
TTITLE1=That`s Way He Sent Me You
TTITLE2=No More Like You
TTITLE3=Thoughts of You
TTITLE4=You`re My Blanket
TTITLE5=Rocky Top
TTITLE6=Spring Will Come Again
TTITLE7=You
TTITLE8=You`ve Stole My Heart Away
TTITLE9=Coat of Many Colors
TTITLE10=I Love `em All
TTITLE11=Let`s Sail Away
EXTD=
EXTT0=
EXTT1=
EXTT2=
EXTT3=
EXTT4=
EXTT5=
EXTT6=
EXTT7=
EXTT8=
EXTT9=
EXTT10=
EXTT11=
PLAYORDER=
